# xmcd CD database file
#
# Track frame offsets:
#	150
#	14892
#	35295
#	55837
#	74630
#	100828
#	119679
#	138131
#	156872
#	174158
#
# Disc length: 2549 seconds
#
# Revision: 0
# Processed by: cddbd v1.5.2PL0 Copyright (c) Steve Scherf et al.
# Submitted via: CDex 1.70beta2
#
DISCID=8809f30a
DTITLE=Johannes Linstead - Encanto
DYEAR=2007
DGENRE=New Age
TTITLE0=Torre de Oro
TTITLE1=Costa de la Ruz
TTITLE2=Magic City
TTITLE3=To the Sea
TTITLE4=Morning Star
TTITLE5=Santo Domingo
TTITLE6=Thymme of the Ancient Forest
TTITLE7=Ocaso
TTITLE8=Encanto
TTITLE9=Island Song
EXTD=YEAR: 2007
EXTT0=
EXTT1=
EXTT2=
EXTT3=
EXTT4=
EXTT5=
EXTT6=
EXTT7=
EXTT8=
EXTT9=
PLAYORDER=
